<?xml version="1.0" encoding="UTF-8" standalone="no"?>
<!-- Created with Inkscape (http://www.inkscape.org/) -->

<svg
   xmlns:dc="http://purl.org/dc/elements/1.1/"
   xmlns:cc="http://creativecommons.org/ns#"
   xmlns:rdf="http://www.w3.org/1999/02/22-rdf-syntax-ns#"
   xmlns:svg="http://www.w3.org/2000/svg"
   xmlns="http://www.w3.org/2000/svg"
   xmlns:sodipodi="http://sodipodi.sourceforge.net/DTD/sodipodi-0.dtd"
   xmlns:inkscape="http://www.inkscape.org/namespaces/inkscape"
   width="10.458085"
   height="13.022108"
   viewBox="0 0 2.767035 3.4454328"
   version="1.1"
   id="svg35"
   inkscape:version="0.92.4 (5da689c313, 2019-01-14)"
   sodipodi:docname="double-arrow-down.svg">
  <defs
     id="defs29" />
  <sodipodi:namedview
     id="base"
     pagecolor="#ffffff"
     bordercolor="#666666"
     borderopacity="1.0"
     inkscape:pageopacity="0.0"
     inkscape:pageshadow="2"
     inkscape:zoom="23.416745"
     inkscape:cx="6.3414236"
     inkscape:cy="7.261768"
     inkscape:document-units="mm"
     inkscape:current-layer="layer1"
     showgrid="false"
     fit-margin-top="0"
     fit-margin-left="0"
     fit-margin-right="0"
     fit-margin-bottom="0"
     inkscape:window-width="1366"
     inkscape:window-height="703"
     inkscape:window-x="0"
     inkscape:window-y="0"
     inkscape:window-maximized="1"
     units="px" />
  <metadata
     id="metadata32">
    <rdf:RDF>
      <cc:Work
         rdf:about="">
        <dc:format>image/svg+xml</dc:format>
        <dc:type
           rdf:resource="http://purl.org/dc/dcmitype/StillImage" />
        <dc:title></dc:title>
      </cc:Work>
    </rdf:RDF>
  </metadata>
  <g
     inkscape:label="Camada 1"
     inkscape:groupmode="layer"
     id="layer1"
     transform="translate(-122.97981,-118.01046)">
    <path
       inkscape:connector-curvature="0"
       style="fill:#333333;stroke-width:0.00864429"
       d="m 124.21634,119.73538 -1.17563,-1.17562 c -0.0812,-0.0813 -0.0812,-0.21265 0,-0.29305 l 0.19536,-0.19535 c 0.0813,-0.0812 0.21265,-0.0812 0.29305,0 l 0.83332,0.83331 0.83331,-0.83331 c 0.0812,-0.0812 0.21263,-0.0812 0.29302,0 l 0.1971,0.1945 c 0.0813,0.0812 0.0813,0.21265 0,0.29304 l -1.17562,1.17562 c -0.0812,0.0821 -0.21266,0.0821 -0.29391,7e-4 z m 0.29391,1.65972 1.17562,-1.17563 c 0.0813,-0.0812 0.0813,-0.21266 0,-0.29304 l -0.19536,-0.19537 c -0.0813,-0.0812 -0.21265,-0.0812 -0.29304,0 l -0.83418,0.83245 -0.8333,-0.83332 c -0.0813,-0.0812 -0.21266,-0.0812 -0.29305,0 l -0.19623,0.19536 c -0.0812,0.0813 -0.0812,0.21265 0,0.29305 l 1.17563,1.17563 c 0.0812,0.0821 0.21265,0.0821 0.29391,7e-4 z"
       id="path2" />
  </g>
</svg>
