<?xml version="1.0" encoding="UTF-8" standalone="no"?>
<!-- Svg Vector Icons : http://www.onlinewebfonts.com/icon -->

<svg
   xmlns:dc="http://purl.org/dc/elements/1.1/"
   xmlns:cc="http://creativecommons.org/ns#"
   xmlns:rdf="http://www.w3.org/1999/02/22-rdf-syntax-ns#"
   xmlns:svg="http://www.w3.org/2000/svg"
   xmlns="http://www.w3.org/2000/svg"
   xmlns:sodipodi="http://sodipodi.sourceforge.net/DTD/sodipodi-0.dtd"
   xmlns:inkscape="http://www.inkscape.org/namespaces/inkscape"
   version="1.1"
   x="0px"
   y="0px"
   viewBox="0 0 16.000002 16.083191"
   enable-background="new 0 0 1000 1000"
   xml:space="preserve"
   id="svg14"
   sodipodi:docname="stop_timer.svg"
   inkscape:version="0.92.4 (5da689c313, 2019-01-14)"
   width="16.000002"
   height="16.083191"><defs
   id="defs18" /><sodipodi:namedview
   pagecolor="#ffffff"
   bordercolor="#666666"
   borderopacity="1"
   objecttolerance="10"
   gridtolerance="10"
   guidetolerance="10"
   inkscape:pageopacity="0"
   inkscape:pageshadow="2"
   inkscape:window-width="1366"
   inkscape:window-height="703"
   id="namedview16"
   showgrid="false"
   inkscape:zoom="11.496998"
   inkscape:cx="8.0000012"
   inkscape:cy="8.0415959"
   inkscape:window-x="0"
   inkscape:window-y="0"
   inkscape:window-maximized="1"
   inkscape:current-layer="svg14"
   fit-margin-top="0"
   fit-margin-left="0"
   fit-margin-right="0"
   fit-margin-bottom="0" />
<metadata
   id="metadata2"> Svg Vector Icons : http://www.onlinewebfonts.com/icon <rdf:RDF><cc:Work
     rdf:about=""><dc:format>image/svg+xml</dc:format><dc:type
       rdf:resource="http://purl.org/dc/dcmitype/StillImage" /><dc:title></dc:title></cc:Work></rdf:RDF></metadata>
<path
   d="m 7.4720175,0.00539017 c -1.165712,0.11902 -2.009466,0.35363 -2.916076,0.80163 -1.463344,0.72473003 -2.594117,1.76441003 -3.43085,3.15069003 -1.07461005,1.78187 -1.39330365,3.90334 -0.89616205,5.97582 0.08408,0.3570598 0.09453,0.3781298 0.164571,0.3570598 0.04196,-0.014 0.24849,-0.0771 0.45502,-0.14008 0.21012205,-0.063 0.38857005,-0.12245 0.39918305,-0.12947 0.007,-0.0104 -0.01747,-0.1400798 -0.056,-0.2906098 -0.32555105,-1.27428 -0.26955105,-2.70595 0.153959,-3.98726 0.808651,-2.45762 2.846198,-4.21142 5.408642,-4.65599 2.016486,-0.35004003 4.1134605,0.17502 5.6677435,1.4178 0.367509,0.29061 0.927671,0.86465 1.197222,1.2253 1.207834,1.60685 1.666445,3.72489 1.253222,5.75885 -0.364081,1.7959098 -1.449304,3.3923198 -2.989709,4.4039098 -0.812243,0.52865 -1.802935,0.89975 -2.8355855,1.06073 -0.574039,0.0875 -1.624323,0.0805 -2.163424,-0.0175 -0.227591,-0.0385 -0.448162,-0.0805 -0.49355,-0.0945 -0.07706,-0.0175 -0.08751,-0.004 -0.196081,0.44114 -0.06645,0.26612 -0.101551,0.47265 -0.08408,0.49012 0.01747,0.0175 0.20653,0.063 0.420081,0.10155 2.685056,0.4831 5.3106825,-0.37453 7.2151685,-2.35607 1.477548,-1.53355 2.25469,-3.43787 2.25469,-5.5173798 0,-2.05845 -0.773713,-3.96995 -2.215996,-5.48228 -1.512324,-1.58236003 -3.472809,-2.46448003 -5.5942735,-2.51362003 -0.31853,-0.007 -0.640652,-0.007 -0.717713,1.6e-4 z"
   id="path4"
   inkscape:connector-curvature="0"
   style="stroke-width:0.00163265" /><path
   d="m 7.6646695,2.2914302 c -0.06645,0.0349 -0.153959,0.11902 -0.192489,0.18204 -0.07004,0.11559 -0.07004,0.18204 -0.07004,2.97207 v 2.85322 l 0.08049,0.11559 c 0.164571,0.22759 -0.0034,0.21698 3.1297895,0.21698 2.758525,0 2.849626,-0.003 2.958198,-0.07 0.234611,-0.14008 0.304652,-0.38514 0.178448,-0.62661 -0.153959,-0.30106 0.01404,-0.28359 -2.835586,-0.28359 H 8.3998525 v -2.496 -2.49599 l -0.07706,-0.15396 c -0.136489,-0.25926 -0.409631,-0.35037 -0.658121,-0.21371 z"
   id="path6"
   inkscape:connector-curvature="0"
   style="stroke-width:0.00163265" /><path
   d="m 0.61750045,11.34431 c -0.07004,0.0245 -0.154122,0.0666 -0.185632,0.0911 -0.146939,0.12245 -0.19951,0.40604 -0.10498,0.58465 0.02808,0.0526 0.40604,0.44816 0.84016205,0.88228 l 0.791182,0.78417 -0.819264,0.82612 c -0.53208005,0.53208 -0.82971205,0.85763 -0.84375305,0.92065 -0.04898,0.18906 0.0034,0.38514 0.136489,0.50416 0.14351,0.13306 0.252081,0.168 0.434122,0.13306 0.112,-0.0211 0.24848905,-0.14351 0.96277305,-0.85061 l 0.829713,-0.82612 0.833141,0.82612 c 0.710693,0.7071 0.847182,0.82971 0.959182,0.85061 0.18204,0.0349 0.290612,0 0.434122,-0.13306 0.133061,-0.11902 0.185469,-0.31151 0.140081,-0.50416 -0.01747,-0.063 -0.308081,-0.38155 -0.847182,-0.92065 l -0.819264,-0.8227 0.791182,-0.78775 c 0.434122,-0.43412 0.812244,-0.82971 0.840162,-0.88228 0.192489,-0.36751 -0.164571,-0.79821 -0.570611,-0.68621 -0.10498,0.0279 -0.297632,0.19951 -0.948733,0.84359 l -0.812243,0.81225 -0.797876,-0.79445 c -0.43755,-0.43412 -0.826121,-0.80522 -0.86465105,-0.82612 -0.13649,-0.063 -0.245061,-0.0736 -0.378122,-0.0246 z"
   id="path8"
   inkscape:connector-curvature="0"
   style="fill:#aa0000;stroke-width:0.00163265" />
</svg>