<?xml version="1.0" encoding="UTF-8" standalone="no"?>
<!-- Svg Vector Icons : http://www.onlinewebfonts.com/icon -->

<svg
   xmlns:dc="http://purl.org/dc/elements/1.1/"
   xmlns:cc="http://creativecommons.org/ns#"
   xmlns:rdf="http://www.w3.org/1999/02/22-rdf-syntax-ns#"
   xmlns:svg="http://www.w3.org/2000/svg"
   xmlns="http://www.w3.org/2000/svg"
   xmlns:sodipodi="http://sodipodi.sourceforge.net/DTD/sodipodi-0.dtd"
   xmlns:inkscape="http://www.inkscape.org/namespaces/inkscape"
   version="1.1"
   x="0px"
   y="0px"
   viewBox="0 0 16.000002 16.083191"
   enable-background="new 0 0 1000 1000"
   xml:space="preserve"
   id="svg14"
   sodipodi:docname="timer_stop.svg"
   inkscape:version="0.92.4 (5da689c313, 2019-01-14)"
   width="16.000002"
   height="16.083191"><defs
   id="defs18" /><sodipodi:namedview
   pagecolor="#ffffff"
   bordercolor="#666666"
   borderopacity="1"
   objecttolerance="10"
   gridtolerance="10"
   guidetolerance="10"
   inkscape:pageopacity="0"
   inkscape:pageshadow="2"
   inkscape:window-width="1366"
   inkscape:window-height="703"
   id="namedview16"
   showgrid="false"
   inkscape:zoom="21.03843"
   inkscape:cx="2.0968101"
   inkscape:cy="7.1078872"
   inkscape:window-x="0"
   inkscape:window-y="0"
   inkscape:window-maximized="1"
   inkscape:current-layer="svg14"
   fit-margin-top="0"
   fit-margin-left="0"
   fit-margin-right="0"
   fit-margin-bottom="0" />
<metadata
   id="metadata2"> Svg Vector Icons : http://www.onlinewebfonts.com/icon <rdf:RDF><cc:Work
     rdf:about=""><dc:format>image/svg+xml</dc:format><dc:type
       rdf:resource="http://purl.org/dc/dcmitype/StillImage" /><dc:title /></cc:Work></rdf:RDF></metadata>

<g
   id="g56"
   transform="matrix(0.86139074,0,0,0.86139074,23.989435,1.8247436)"
   style="fill:#0c755b;fill-opacity:1"><path
     style="fill:#0c755b;stroke-width:0.07877136;fill-opacity:1"
     d="m -16.362042,12.018124 c 0.633604,0 1.147084,-0.447659 1.147084,-1.000207 V 3.4165357 c 0,-0.5524748 -0.513396,-1.0002073 -1.147084,-1.0002073 -0.633691,0 -1.147006,0.4477325 -1.147006,1.0002073 v 7.6013813 c 0,0.552548 0.513398,1.000207 1.147006,1.000207 z"
     id="path46"
     inkscape:connector-curvature="0" /><path
     inkscape:connector-curvature="0"
     id="path52"
     d="m -20.76273,12.018124 c 0.633604,0 1.147084,-0.447659 1.147084,-1.000207 V 3.4165357 c 0,-0.5524748 -0.513396,-1.0002073 -1.147084,-1.0002073 -0.633691,0 -1.147006,0.4477325 -1.147006,1.0002073 v 7.6013813 c 0,0.552548 0.513398,1.000207 1.147006,1.000207 z"
     style="fill:#0c755b;stroke-width:0.07877136;fill-opacity:1" /></g><g
   id="g10"
   transform="matrix(0.05883348,0,0,0.05883348,8.4371432e-7,0.04162477)"
   style="fill:#0c755b;fill-opacity:1;stroke:#222b00"><path
     id="path2"
     d="m 135.977,271.953 c 75.097,0 135.977,-60.879 135.977,-135.977 C 271.954,60.878 211.074,0 135.977,0 60.88,0 0,60.879 0,135.977 0,211.075 60.879,271.953 135.977,271.953 Z m 0,-250.197 c 62.979,0 114.22,51.241 114.22,114.22 0,62.979 -51.241,114.22 -114.22,114.22 -62.979,0 -114.22,-51.241 -114.22,-114.22 0,-62.979 51.235,-114.22 114.22,-114.22 z"
     style="fill:#0c755b;fill-opacity:1;stroke:#222b00"
     inkscape:connector-curvature="0" /></g></svg>